<svg xmlns="http://www.w3.org/2000/svg" xmlns:xlink="http://www.w3.org/1999/xlink" viewBox="0 0 125.84 125.84"><defs><style>.cls-1{fill:none;}.cls-2{isolation:isolate;}.cls-3{fill:url(#New_Gradient_Swatch);}.cls-4{mix-blend-mode:multiply;}.cls-5{fill:#5e6e72;}.cls-6{clip-path:url(#clip-path);}.cls-7{fill:#fff;}</style><linearGradient id="New_Gradient_Swatch" x1="5.71" y1="6.85" x2="120.94" y2="119.79" gradientUnits="userSpaceOnUse"><stop offset="0" stop-color="#ccffb6"/><stop offset="0.31" stop-color="#b7efc7"/><stop offset="0.65" stop-color="#7cd3be"/><stop offset="1" stop-color="#4debe5"/></linearGradient><clipPath id="clip-path"><path class="cls-1" d="M69.68,35.84a9.79,9.79,0,0,0-7,2.88A9.84,9.84,0,1,0,48.84,52.66l.06.06L62.73,66.55,76.55,52.72l.07-.06a9.84,9.84,0,0,0-6.94-16.82Z"/></clipPath></defs><title>logo2Artboard 46</title><g class="cls-2"><g id="Layer_1" data-name="Layer 1"><rect class="cls-3" width="125.84" height="125.84"/><g class="cls-4"><path class="cls-5" d="M23.17,81.53v7.91a.56.56,0,0,1-.54.56.57.57,0,0,1-.56-.56V81.53a.57.57,0,0,1,.56-.56A.56.56,0,0,1,23.17,81.53Z"/><path class="cls-5" d="M38.11,81.53v8a.49.49,0,0,1-.5.51.67.67,0,0,1-.56-.32l-5-6.71v6.47a.55.55,0,1,1-1.1,0v-8a.49.49,0,0,1,.5-.51.67.67,0,0,1,.56.32L37,88V81.53a.58.58,0,0,1,.55-.56A.57.57,0,0,1,38.11,81.53Z"/><path class="cls-5" d="M55.43,81.46v8a.56.56,0,0,1-.55.56.58.58,0,0,1-.55-.56v-6l-3.16,5.86a.55.55,0,0,1-.49.32.53.53,0,0,1-.47-.32L47,83.45v6a.55.55,0,1,1-1.09,0v-8a.47.47,0,0,1,.48-.49.65.65,0,0,1,.56.37l3.7,6.76,3.7-6.76A.68.68,0,0,1,55,81,.46.46,0,0,1,55.43,81.46Z"/><path class="cls-5" d="M69.38,81.46a.52.52,0,0,1-.11.32l-2.79,4v3.65A.54.54,0,0,1,66,90a.55.55,0,0,1-.55-.53V85.82l-2.8-4a.65.65,0,0,1-.09-.32A.5.5,0,0,1,63,81a.52.52,0,0,1,.42.23L66,84.89l2.51-3.69a.52.52,0,0,1,.42-.23A.5.5,0,0,1,69.38,81.46Z"/><path class="cls-5" d="M81.61,82H77.54v3.11h3.33a.48.48,0,0,1,.49.46.49.49,0,0,1-.49.46H77.54v3.44a.54.54,0,1,1-1.08,0V81.6A.56.56,0,0,1,77,81h4.57a.48.48,0,1,1,0,1Z"/><path class="cls-5" d="M90.28,81.53v7.91a.56.56,0,0,1-.54.56.57.57,0,0,1-.56-.56V81.53a.57.57,0,0,1,.56-.56A.56.56,0,0,1,90.28,81.53Z"/><path class="cls-5" d="M103.77,81.48a.49.49,0,0,1-.49.49h-2.19v7.46a.56.56,0,0,1-.54.57.57.57,0,0,1-.55-.57V82H97.8a.48.48,0,0,1,0-1h5.48A.49.49,0,0,1,103.77,81.48Z"/></g><g class="cls-6"><path id="group-73" class="cls-7" d="M46.32,52.09a.54.54,0,0,1-.53-.44,18.83,18.83,0,0,1,1.65-12.19.54.54,0,0,1,.73-.24.56.56,0,0,1,.25.74h0a17.66,17.66,0,0,0-1.56,11.48.54.54,0,0,1-.41.64h-.13Zm3.09-14.27a.54.54,0,0,1-.52-.56A.47.47,0,0,1,49,37,18.14,18.14,0,0,1,71.88,31.2a.56.56,0,0,1,.23.74.55.55,0,0,1-.7.25,17.09,17.09,0,0,0-21.56,5.42A.56.56,0,0,1,49.41,37.82Zm31.85,7.07a.54.54,0,0,1-.53-.43,17.57,17.57,0,0,0-7-10.92.55.55,0,0,1-.09-.76.53.53,0,0,1,.71-.13,18.65,18.65,0,0,1,7.44,11.59.54.54,0,0,1-.42.64h-.1Zm.36,4h0a.53.53,0,0,1-.52-.55h0a18.2,18.2,0,0,0-.34-3.83.54.54,0,1,1,1-.22h0a19.82,19.82,0,0,1,.36,4.07.54.54,0,0,1-.55.53Zm-35.1,4a.53.53,0,0,1-.51-.42c-.07-.25-.13-.53-.18-.8a.54.54,0,0,1,.42-.64.53.53,0,0,1,.63.43h0c0,.25.11.5.17.75a.55.55,0,0,1-.39.65ZM59.21,66a.54.54,0,0,1-.53-.55.56.56,0,0,1,.13-.35,20,20,0,0,0,4.48-17.06.54.54,0,0,1,.42-.64.53.53,0,0,1,.63.42,21.1,21.1,0,0,1-4.73,18,.53.53,0,0,1-.4.19Zm-2.31-.8a.54.54,0,0,1-.53-.55.56.56,0,0,1,.15-.37,17.56,17.56,0,0,0,3.74-5.92.53.53,0,0,1,.62-.44.55.55,0,0,1,.44.63.52.52,0,0,1-.09.2,18.77,18.77,0,0,1-4,6.28.58.58,0,0,1-.36.17Zm4.8,1.29a.54.54,0,0,1-.53-.55.57.57,0,0,1,.11-.33,22.43,22.43,0,0,0,4.2-18v-.16a1.71,1.71,0,0,0-3.34.6v.24a19.07,19.07,0,0,1,0,7.6.54.54,0,0,1-.59.48.53.53,0,0,1-.47-.6.43.43,0,0,1,0-.11A17.86,17.86,0,0,0,61.23,49h0l-.1-.51a2.83,2.83,0,0,1,2-3.44,2.78,2.78,0,0,1,3.38,2,2.74,2.74,0,0,1,0,.28l.1.47h0a23.55,23.55,0,0,1-4.48,18.42A.53.53,0,0,1,61.7,66.51Zm-6.91-2.37a.54.54,0,0,1-.53-.55.61.61,0,0,1,.17-.39A15.49,15.49,0,0,0,59.08,50a.55.55,0,0,1,.46-.62.54.54,0,0,1,.6.47,16.61,16.61,0,0,1-5,14.19A.51.51,0,0,1,54.79,64.14ZM68.64,52.49a.53.53,0,0,1-.53-.54h0a25.66,25.66,0,0,0-.48-4.78V47a3.93,3.93,0,0,0-4.78-2.89A4,4,0,0,0,60,47.14a.53.53,0,1,1-1.06-.09.5.5,0,0,1,0-.12,5,5,0,0,1,5.9-4,5.05,5.05,0,0,1,3.9,4l.08.46h0a25.44,25.44,0,0,1,.41,4.53.54.54,0,0,1-.53.54h0ZM64.37,66.61a.54.54,0,0,1-.53-.55.53.53,0,0,1,.09-.3,24.71,24.71,0,0,0,4.05-11,.53.53,0,0,1,.55-.52.54.54,0,0,1,.52.56s0,0,0,.08a25.9,25.9,0,0,1-4.22,11.5A.53.53,0,0,1,64.37,66.61ZM52.9,62.84a.55.55,0,0,1-.58-.5.56.56,0,0,1,.23-.49A13.24,13.24,0,0,0,56.8,49.71l-.08-.34a7.25,7.25,0,0,1,7.65-8.78.53.53,0,0,1,.42.63.52.52,0,0,1-.51.44,6.2,6.2,0,0,0-6.61,5.77,6.38,6.38,0,0,0,0,1.45l.06.27a14.34,14.34,0,0,1-4.54,13.5.58.58,0,0,1-.34.19Zm14.31,3.45a.54.54,0,0,1-.53-.54.57.57,0,0,1,.08-.28,27,27,0,0,0,3.08-18.75v-.21a6.23,6.23,0,0,0-3-4,.57.57,0,0,1-.21-.76.54.54,0,0,1,.73-.22,7.31,7.31,0,0,1,3.56,4.93l.09.43h0a28.17,28.17,0,0,1-3.29,19.09A.54.54,0,0,1,67.21,66.29Zm-16-5a.54.54,0,0,1-.57-.51.56.56,0,0,1,.23-.48A10.77,10.77,0,0,0,54,55.87a.54.54,0,0,1,.62-.44.55.55,0,0,1,.44.63.7.7,0,0,1-.08.2,11.92,11.92,0,0,1-3.51,4.94A.59.59,0,0,1,51.17,61.32Zm21.56-4h-.08a.54.54,0,0,1-.44-.62A29.42,29.42,0,0,0,72,46.28v-.15a8,8,0,0,0-9.57-6.6,8.44,8.44,0,0,0-7,9.71.5.5,0,0,0,0,.12l.06.29a12.15,12.15,0,0,1,.16,3.61.54.54,0,0,1-.55.53.55.55,0,0,1-.52-.56.28.28,0,0,0,0-.09,10.88,10.88,0,0,0-.09-3l-.07-.3a9.61,9.61,0,0,1,7.39-11.32A9.46,9.46,0,0,1,73,46.08l.06.33h0a30.43,30.43,0,0,1,.14,10.47.54.54,0,0,1-.51.44Zm-2.54,8.1a.53.53,0,0,1-.47-.78,29.7,29.7,0,0,0,1.94-5.19.54.54,0,0,1,.62-.44.55.55,0,0,1,.43.63s0,.06,0,.09a31.12,31.12,0,0,1-1.94,5.38A.54.54,0,0,1,70.19,65.42Zm3.1-1.57a.52.52,0,0,1-.53-.54.69.69,0,0,1,0-.2,31.6,31.6,0,0,0,1.43-17.17v-.12a10.78,10.78,0,0,0-1.82-4.21.55.55,0,0,1,.12-.76.53.53,0,0,1,.75.11h0a12,12,0,0,1,1.94,4.46h0v.19A32.76,32.76,0,0,1,73.75,63.5.52.52,0,0,1,73.29,63.85ZM70.86,39.74a.54.54,0,0,1-.34-.12,10.48,10.48,0,0,0-11.15-1.46.53.53,0,0,1-.71-.27.55.55,0,0,1,.27-.72A11.5,11.5,0,0,1,71.2,38.78a.55.55,0,0,1,.13.76.53.53,0,0,1-.47.23ZM49.73,59.62a.54.54,0,0,1-.56-.52.56.56,0,0,1,.23-.47,8.59,8.59,0,0,0,3-8.07l-.06-.27a12,12,0,0,1,4.09-11.58.53.53,0,0,1,.74.16.54.54,0,0,1-.07.68,10.91,10.91,0,0,0-3.78,10.23l.06.28a9.68,9.68,0,0,1-3.35,9.41A.5.5,0,0,1,49.73,59.62Zm-1.26-1.9a.52.52,0,0,1-.57-.49.55.55,0,0,1,.22-.49,6.34,6.34,0,0,0,2.11-5.81v-.22A15.24,15.24,0,0,1,50,48.48a.55.55,0,0,1,.51-.57h0a.54.54,0,0,1,.54.53,13,13,0,0,0,.19,1.76l.06.3a7.44,7.44,0,0,1-2.42,7.07.48.48,0,0,1-.38.15ZM77.21,47.58a.54.54,0,0,1-.53-.47c-.06-.49-.15-1-.25-1.49l-.05-.24A12.84,12.84,0,0,0,61.3,35.11,13,13,0,0,0,51.15,45.72a.53.53,0,1,1-1.06-.1s0-.06,0-.09a13.85,13.85,0,0,1,27.23-.78h0l.08.41c.12.59.23,1.19.31,1.79a.55.55,0,0,1-.44.61Zm-.81,13.7h-.13a.53.53,0,0,1-.38-.66,34,34,0,0,0,1-10.67.54.54,0,0,1,.5-.58.53.53,0,0,1,.56.51h0a34.93,34.93,0,0,1-1.07,11A.55.55,0,0,1,76.4,61.28Zm-29-5.65a.53.53,0,0,1-.53-.55.54.54,0,0,1,.14-.36,4.08,4.08,0,0,0,1-3.34v-.17A16.41,16.41,0,0,1,60.64,31.88,15.85,15.85,0,0,1,66,31.7a.56.56,0,0,1,.46.62.54.54,0,0,1-.6.46A15.12,15.12,0,0,0,48.88,45.94,15.64,15.64,0,0,0,49,50.72l.06.28a5.17,5.17,0,0,1-1.25,4.47.47.47,0,0,1-.38.16ZM79.53,57h-.07a.54.54,0,0,1-.47-.6,36.33,36.33,0,0,0-.36-11.16l-.07-.32A15.28,15.28,0,0,0,68.39,33.37a.54.54,0,0,1-.13-.75.51.51,0,0,1,.45-.23A16.33,16.33,0,0,1,79.5,44.31h0l.1.46A37.7,37.7,0,0,1,80,56.62.52.52,0,0,1,79.53,57Z"/></g></g></g></svg>