<svg id="Layer_1" data-name="Layer 1" xmlns="http://www.w3.org/2000/svg" xmlns:xlink="http://www.w3.org/1999/xlink" viewBox="0 0 81.69 54.17"><defs><style>.cls-1{fill:none;}.cls-2{fill:#5e6e72;}.cls-3{clip-path:url(#clip-path);}.cls-4{fill:url(#New_Gradient_Swatch);}</style><clipPath id="clip-path"><path class="cls-1" d="M47.6,0a9.8,9.8,0,0,0-7,2.88A9.84,9.84,0,1,0,26.76,16.82l.06.07L40.65,30.72,54.48,16.89l.06-.07A9.84,9.84,0,0,0,47.6,0Z"/></clipPath><linearGradient id="New_Gradient_Swatch" x1="30.26" y1="0.68" x2="54.9" y2="25.31" gradientUnits="userSpaceOnUse"><stop offset="0" stop-color="#ccffb6"/><stop offset="0.31" stop-color="#b7efc7"/><stop offset="0.65" stop-color="#7cd3be"/><stop offset="1" stop-color="#4debe5"/></linearGradient></defs><title>logoArtboard 47</title><path class="cls-2" d="M1.1,45.7v7.9a.57.57,0,0,1-.54.57A.57.57,0,0,1,0,53.6V45.7a.56.56,0,0,1,.56-.57A.56.56,0,0,1,1.1,45.7Z"/><path class="cls-2" d="M16,45.7v7.94a.49.49,0,0,1-.5.51.65.65,0,0,1-.56-.32l-5-6.71v6.47a.55.55,0,1,1-1.09,0v-8a.48.48,0,0,1,.49-.51.71.71,0,0,1,.57.32l5,6.71V45.7a.55.55,0,1,1,1.1,0Z"/><path class="cls-2" d="M33.35,45.62v8a.56.56,0,0,1-.54.56.57.57,0,0,1-.55-.56v-6l-3.17,5.87a.51.51,0,0,1-.95,0L25,47.61v6a.56.56,0,0,1-.55.56.57.57,0,0,1-.55-.56v-8a.48.48,0,0,1,.49-.49.68.68,0,0,1,.56.37l3.7,6.77,3.7-6.77a.7.7,0,0,1,.57-.37A.46.46,0,0,1,33.35,45.62Z"/><path class="cls-2" d="M47.3,45.62a.49.49,0,0,1-.1.32l-2.79,4v3.65a.56.56,0,0,1-.54.54.57.57,0,0,1-.55-.54V50l-2.79-4a.54.54,0,0,1-.09-.32.5.5,0,0,1,.5-.49.53.53,0,0,1,.42.23l2.51,3.69,2.51-3.69a.55.55,0,0,1,.42-.23A.49.49,0,0,1,47.3,45.62Z"/><path class="cls-2" d="M59.54,46.13H55.47v3.11H58.8a.48.48,0,0,1,.48.46.48.48,0,0,1-.48.46H55.47V53.6a.56.56,0,0,1-.54.57.57.57,0,0,1-.55-.57V45.76a.57.57,0,0,1,.59-.59h4.57a.49.49,0,0,1,.48.47A.48.48,0,0,1,59.54,46.13Z"/><path class="cls-2" d="M68.21,45.7v7.9a.55.55,0,1,1-1.1,0V45.7a.55.55,0,1,1,1.1,0Z"/><path class="cls-2" d="M81.69,45.64a.48.48,0,0,1-.48.49H79v7.46a.54.54,0,1,1-1.08,0V46.13H75.72a.47.47,0,0,1-.47-.49.48.48,0,0,1,.47-.47h5.49A.49.49,0,0,1,81.69,45.64Z"/><g class="cls-3"><path id="group-73" class="cls-4" d="M24.25,16.25a.54.54,0,0,1-.53-.43A18.81,18.81,0,0,1,25.37,3.63a.53.53,0,0,1,.73-.25.55.55,0,0,1,.24.74h0A17.66,17.66,0,0,0,24.79,15.6a.54.54,0,0,1-.42.64h-.12ZM27.34,2a.54.54,0,0,1-.52-.55.56.56,0,0,1,.09-.31,18.16,18.16,0,0,1,22.9-5.76A.56.56,0,0,1,50-3.9a.52.52,0,0,1-.69.25A17.09,17.09,0,0,0,27.78,1.77.55.55,0,0,1,27.34,2ZM59.18,9.06a.54.54,0,0,1-.52-.44,17.57,17.57,0,0,0-7-10.92.55.55,0,0,1-.09-.76.52.52,0,0,1,.7-.12A18.62,18.62,0,0,1,59.71,8.4a.56.56,0,0,1-.42.65h-.11ZM59.55,13h0a.53.53,0,0,1-.52-.55h0a18.26,18.26,0,0,0-.34-3.83A.54.54,0,0,1,59.1,8a.54.54,0,0,1,.64.42h0a19.19,19.19,0,0,1,.35,4.07.52.52,0,0,1-.54.53Zm-35.1,4a.52.52,0,0,1-.51-.41c-.07-.26-.13-.54-.18-.8a.54.54,0,1,1,1-.22h0c.05.26.11.5.16.75a.53.53,0,0,1-.38.65ZM37.13,30.18a.53.53,0,0,1-.52-.55.51.51,0,0,1,.13-.35,20,20,0,0,0,4.48-17.06.54.54,0,0,1,.42-.64.53.53,0,0,1,.63.43,21.08,21.08,0,0,1-4.73,18,.53.53,0,0,1-.41.19Zm-2.31-.8a.53.53,0,0,1-.52-.55.51.51,0,0,1,.15-.37,17.72,17.72,0,0,0,3.74-5.92.53.53,0,1,1,1.05.19.5.5,0,0,1-.08.2,18.7,18.7,0,0,1-4,6.28.53.53,0,0,1-.36.17Zm4.81,1.29a.52.52,0,0,1-.53-.54.6.6,0,0,1,.11-.34,22.39,22.39,0,0,0,4.19-18v-.16a1.7,1.7,0,0,0-2.13-1.15,1.75,1.75,0,0,0-1.21,1.75v.24a18.71,18.71,0,0,1,0,7.6.53.53,0,0,1-.59.48.54.54,0,0,1-.47-.6.45.45,0,0,1,0-.11,17.65,17.65,0,0,0,.12-6.64h0l-.1-.51a2.84,2.84,0,0,1,2-3.43,2.76,2.76,0,0,1,3.37,2,1.31,1.31,0,0,1,.06.27l.1.48h0A23.52,23.52,0,0,1,40.1,30.46.52.52,0,0,1,39.63,30.67ZM32.72,28.3a.54.54,0,0,1-.53-.55.52.52,0,0,1,.17-.38A15.54,15.54,0,0,0,37,14.11a.53.53,0,0,1,.45-.61.54.54,0,0,1,.61.46,16.67,16.67,0,0,1-5,14.2A.57.57,0,0,1,32.72,28.3ZM46.57,16.66a.55.55,0,0,1-.54-.55h0a24.65,24.65,0,0,0-.47-4.77v-.21a3.92,3.92,0,0,0-7.66.18.53.53,0,1,1-1.06-.1.5.5,0,0,1,0-.12,5,5,0,0,1,9.79,0l.09.46h0a26.5,26.5,0,0,1,.41,4.53.55.55,0,0,1-.54.55h0ZM42.3,30.77a.53.53,0,0,1-.53-.55.55.55,0,0,1,.09-.3,24.71,24.71,0,0,0,4-11,.53.53,0,1,1,1.06,0A.28.28,0,0,1,47,19a25.74,25.74,0,0,1-4.22,11.49A.51.51,0,0,1,42.3,30.77ZM30.83,27a.53.53,0,0,1-.58-.49.54.54,0,0,1,.23-.5,13.23,13.23,0,0,0,4.25-12.14l-.08-.33A7.26,7.26,0,0,1,42.3,4.75a.55.55,0,0,1-.09,1.08,6.2,6.2,0,0,0-6.62,5.77A6.92,6.92,0,0,0,35.65,13l.06.27a14.34,14.34,0,0,1-4.54,13.5.53.53,0,0,1-.34.19Zm14.31,3.46a.54.54,0,0,1-.53-.55.6.6,0,0,1,.07-.27,27.09,27.09,0,0,0,3.09-18.76v-.21a6.26,6.26,0,0,0-3-4,.57.57,0,0,1-.21-.76.54.54,0,0,1,.73-.23,7.37,7.37,0,0,1,3.56,4.94l.08.42h0A28.1,28.1,0,0,1,45.64,30.1.53.53,0,0,1,45.14,30.46Zm-16-5a.54.54,0,0,1-.57-.51.56.56,0,0,1,.23-.48A10.77,10.77,0,0,0,31.94,20a.53.53,0,1,1,1,.4,11.93,11.93,0,0,1-3.5,4.93A.52.52,0,0,1,29.1,25.48Zm21.56-4h-.09a.54.54,0,0,1-.43-.62,29.14,29.14,0,0,0-.2-10.41v-.16A8,8,0,0,0,40.38,3.7a8.44,8.44,0,0,0-7,9.7l0,.13,0,.28a11.88,11.88,0,0,1,.17,3.62.54.54,0,1,1-1.07,0s0-.05,0-.08a10.86,10.86,0,0,0-.1-3L32.45,14A9.59,9.59,0,0,1,39.84,2.72,9.45,9.45,0,0,1,51,10.24l.07.34h0A30.37,30.37,0,0,1,51.17,21a.54.54,0,0,1-.51.44Zm-2.54,8.11a.54.54,0,0,1-.53-.55.59.59,0,0,1,0-.23,29.5,29.5,0,0,0,1.94-5.19.53.53,0,0,1,.62-.44.55.55,0,0,1,.44.63l0,.08a29.54,29.54,0,0,1-1.94,5.38A.52.52,0,0,1,48.12,29.59ZM51.21,28a.54.54,0,0,1-.53-.55.65.65,0,0,1,0-.19A31.64,31.64,0,0,0,52.15,10.1V10a10.78,10.78,0,0,0-1.82-4.21A.55.55,0,0,1,50.45,5a.52.52,0,0,1,.75.12h0a12,12,0,0,1,1.94,4.45h0v.2a32.73,32.73,0,0,1-1.46,17.88A.54.54,0,0,1,51.21,28ZM48.79,3.9a.54.54,0,0,1-.34-.12A10.48,10.48,0,0,0,37.3,2.32a.53.53,0,0,1-.71-.26.54.54,0,0,1,.26-.72A11.47,11.47,0,0,1,49.13,3a.54.54,0,0,1,.13.75.53.53,0,0,1-.47.23ZM27.65,23.78a.53.53,0,0,1-.55-.52.52.52,0,0,1,.22-.46,8.6,8.6,0,0,0,3-8.08l-.06-.27A11.94,11.94,0,0,1,34.38,2.88a.53.53,0,0,1,.74.15.56.56,0,0,1-.07.69,10.86,10.86,0,0,0-3.78,10.22l.06.29A9.67,9.67,0,0,1,28,23.63.48.48,0,0,1,27.65,23.78ZM26.4,21.89a.55.55,0,0,1-.35-1,6.32,6.32,0,0,0,2.11-5.8v-.23a14,14,0,0,1-.27-2.23.54.54,0,0,1,.52-.56h0a.53.53,0,0,1,.53.52,13.32,13.32,0,0,0,.2,1.77l.06.29a7.46,7.46,0,0,1-2.42,7.07.55.55,0,0,1-.38.16ZM55.14,11.74a.54.54,0,0,1-.53-.46c-.07-.5-.15-1-.25-1.49l0-.25a12.79,12.79,0,0,0-25.23.34A.53.53,0,1,1,28,9.78a.19.19,0,0,1,0-.08,13.85,13.85,0,0,1,27.23-.78h0l.08.4c.12.59.22,1.2.31,1.79a.55.55,0,0,1-.45.61Zm-.81,13.7h-.14a.54.54,0,0,1-.37-.66,33.66,33.66,0,0,0,1-10.67.55.55,0,0,1,.5-.58.54.54,0,0,1,.57.51h0a34.68,34.68,0,0,1-1.08,11A.52.52,0,0,1,54.33,25.44Zm-29-5.64a.54.54,0,0,1-.52-.55.57.57,0,0,1,.13-.36,4,4,0,0,0,1-3.35v-.17A16.42,16.42,0,0,1,38.57-4a16.11,16.11,0,0,1,5.32-.17.53.53,0,0,1,.45.61.53.53,0,0,1-.6.46A15.13,15.13,0,0,0,26.8,10.1a16,16,0,0,0,.11,4.78l.06.29a5.14,5.14,0,0,1-1.24,4.47.55.55,0,0,1-.39.16Zm32.11,1.39h-.06a.55.55,0,0,1-.47-.61,36.34,36.34,0,0,0-.37-11.16l-.07-.32A15.25,15.25,0,0,0,46.31-2.46a.55.55,0,0,1-.13-.76.53.53,0,0,1,.45-.23A16.35,16.35,0,0,1,57.43,8.47h0l.09.47A37.36,37.36,0,0,1,58,20.78.53.53,0,0,1,57.45,21.19Z"/></g></svg>